<?xml version="1.0" encoding="UTF-8"?>
<svg version="1.1" xmlns="http://www.w3.org/2000/svg" width="311" height="504">
<path d="M0 0 C0 32.01 0 64.02 0 97 C-43.38507549 112.98397518 -43.38507549 112.98397518 -63.13330078 120.11425781 C-68.70318859 122.12536819 -74.27190309 124.13972271 -79.84069061 126.15387726 C-81.71067661 126.83019207 -83.58071041 127.50637468 -85.45074463 128.18255615 C-97.17133345 132.4214163 -108.88439586 136.68082138 -120.59573364 140.94515991 C-131.85193446 145.04333792 -143.11299811 149.12779603 -154.37890625 153.19921875 C-155.63586111 153.65378529 -156.89280382 154.10838541 -158.1497345 154.5630188 C-164.44885675 156.84112032 -170.74945015 159.11497457 -177.05297852 161.38085938 C-187.78042757 165.24413194 -198.48319648 169.13699635 -209.0859375 173.33203125 C-210.71138775 173.96750929 -212.33695246 174.60269467 -213.96264648 175.23754883 C-216.83689176 176.3609922 -219.69123236 177.52174512 -222.53930664 178.7097168 C-230.84640578 182.05557033 -235.71866808 182.31052867 -244 179 C-245.50106443 178.4771947 -247.00519771 177.96315849 -248.51147461 177.45556641 C-253.94131859 175.62209894 -259.34543861 173.718971 -264.75 171.8125 C-266.57669764 171.17086718 -268.40351993 170.52958915 -270.23046875 169.88867188 C-275.82065303 167.92675127 -281.41032267 165.96336447 -287 164 C-294.59 161.36 -302.18 158.72 -310 156 C-310 123.33 -310 90.66 -310 57 C-298.74958805 60.37512359 -298.74958805 60.37512359 -294.62060547 61.89770508 C-293.691987 62.23848587 -292.76336853 62.57926666 -291.80661011 62.93037415 C-290.83660065 63.28979599 -289.86659119 63.64921783 -288.8671875 64.01953125 C-287.83167755 64.40058517 -286.7961676 64.7816391 -285.72927856 65.17424011 C-282.44348131 66.38419928 -279.15924218 67.59832709 -275.875 68.8125 C-273.69540975 69.6154984 -271.51572299 70.41823487 -269.3359375 71.22070312 C-268.27199768 71.61297089 -267.20805786 72.00523865 -266.11187744 72.40939331 C-264.00348422 73.18633684 -261.89456246 73.96184766 -259.78509521 74.73587036 C-255.20917776 76.41987773 -250.64827469 78.1231409 -246.12597656 79.94677734 C-245.39903595 80.2354216 -244.67209534 80.52406586 -243.92312622 80.82145691 C-242.04674546 81.57121496 -240.177532 82.33884511 -238.30908203 83.1081543 C-231.19871254 85.02450222 -224.83417492 82.05203282 -218.21484375 79.5625 C-217.26327896 79.21100388 -216.31171417 78.85950775 -215.33131409 78.49736023 C-212.19759282 77.33806678 -209.06760208 76.16902616 -205.9375 75 C-203.7229037 74.17877575 -201.50805584 73.3582296 -199.29296875 72.53833008 C-194.73547226 70.85027481 -190.17939653 69.15846847 -185.62451172 67.46337891 C-179.59784057 65.22102593 -173.56754081 62.98865023 -167.53515625 60.76171875 C-166.62245468 60.42475983 -165.70975311 60.0878009 -164.76939392 59.7406311 C-162.93360279 59.06290275 -161.09780265 58.38519882 -159.26199341 57.70751953 C-155.51433283 56.32348763 -151.76743147 54.93740631 -148.02049255 53.55142212 C-133.51857338 48.1876096 -119.00948464 42.84330668 -104.5 37.5 C-87.67594084 31.30397681 -70.85342862 25.10383116 -54.03652954 18.88839722 C-51.17451433 17.83079702 -48.31225444 16.77386132 -45.44995117 15.71704102 C-37.38094873 12.73672221 -29.31516519 9.74868902 -21.26171875 6.7265625 C-19.96797253 6.24233456 -18.6741915 5.7581996 -17.38037109 5.27416992 C-15.09133885 4.41660515 -12.80376501 3.55513158 -10.51806641 2.6887207 C-9.5491748 2.32609131 -8.5802832 1.96346191 -7.58203125 1.58984375 C-6.75936768 1.27909912 -5.9367041 0.96835449 -5.08911133 0.64819336 C-3 0 -3 0 0 0 Z " fill="#38ECB0" transform="translate(311,319)"/>
<path d="M0 0 C0 31.68 0 63.36 0 96 C-8.09233648 99.37180687 -16.12965453 102.58152949 -24.37109375 105.52734375 C-25.54192001 105.9486557 -26.71274628 106.36996765 -27.91905212 106.80404663 C-30.44098355 107.71109938 -32.9632683 108.61707802 -35.48626709 109.52114868 C-39.51944259 110.96639067 -43.55108717 112.41587075 -47.58251953 113.8659668 C-52.51581478 115.64016757 -57.4494483 117.41342132 -62.38354111 119.18540287 C-71.23585866 122.36462808 -80.08556948 125.55103447 -88.93359375 128.7421875 C-89.5768586 128.97418854 -90.22012344 129.20618958 -90.88288116 129.44522095 C-94.74070811 130.83666817 -98.59843038 132.22840541 -102.45612335 133.620224 C-105.66323368 134.77725799 -108.87044159 135.93402142 -112.07763672 137.09082031 C-118.23828407 139.31295202 -124.39876455 141.53554598 -130.55914307 143.75842285 C-132.79183281 144.56405256 -135.02453856 145.36963789 -137.25726318 146.1751709 C-142.2831293 147.98848971 -147.30867499 149.80268376 -152.33349609 151.61889648 C-156.10686091 152.98256354 -159.88205202 154.34098678 -163.65869141 155.69555664 C-172.9618167 159.03998273 -182.23226108 162.45243558 -191.46214294 165.9947052 C-196.22578481 167.82020345 -200.99784972 169.62310441 -205.77047729 171.42495728 C-208.0650106 172.29874225 -210.35530766 173.1837452 -212.64089966 174.08065796 C-215.81827334 175.32691926 -219.00817733 176.53402505 -222.203125 177.734375 C-223.1344072 178.11143082 -224.06568939 178.48848663 -225.02519226 178.87696838 C-232.25336026 181.52679936 -236.88572535 180.6056577 -244 178 C-245.86093915 177.39607621 -247.72252211 176.79413298 -249.5847168 176.1940918 C-251.54074468 175.53265431 -253.49553708 174.86755441 -255.44921875 174.19921875 C-256.5055098 173.84036087 -257.56180084 173.48150299 -258.65010071 173.11177063 C-260.87169069 172.35614666 -263.09272808 171.59889624 -265.31323242 170.84008789 C-268.6598221 169.69695426 -272.0084627 168.55999864 -275.35742188 167.42382812 C-277.53398006 166.68266126 -279.71041626 165.94113606 -281.88671875 165.19921875 C-283.35161995 164.70200569 -283.35161995 164.70200569 -284.84611511 164.19474792 C-293.30564902 161.29792441 -301.61524417 158.14428344 -310 155 C-310 122.66 -310 90.32 -310 57 C-306.06551944 57.78689611 -302.75948709 58.71206819 -299.02319336 60.06958008 C-297.84103745 60.49705032 -296.65888153 60.92452057 -295.44090271 61.36494446 C-294.15720649 61.8331129 -292.87352043 62.30130921 -291.58984375 62.76953125 C-290.25823112 63.25212021 -288.92648748 63.7343478 -287.59461975 64.2162323 C-284.08825703 65.48573972 -280.58336134 66.75924608 -277.07885742 68.03387451 C-271.4963433 70.06374946 -265.91189483 72.08828624 -260.32693672 74.1114254 C-258.39463927 74.81216002 -256.46313346 75.51504085 -254.53172302 76.21821594 C-252.14385272 77.08460535 -249.75156092 77.9389276 -247.35453796 78.77966309 C-245.17979981 79.5708043 -243.02661199 80.42507092 -240.90583801 81.35119629 C-232.39782026 84.84654329 -227.12169692 83.35016638 -218.76953125 79.9921875 C-217.51013366 79.51699558 -216.24945722 79.04518134 -214.98762512 78.57649231 C-211.61349169 77.31322242 -208.25805098 76.00598872 -204.90418243 74.69002914 C-201.37485427 73.31481785 -197.82926907 71.98294029 -194.28466797 70.64770508 C-188.54765188 68.48202258 -182.81888853 66.29589865 -177.09521484 64.09521484 C-166.96586163 60.20460328 -156.77762804 56.47847251 -146.58187866 52.76593018 C-141.63673081 50.96234022 -136.6974971 49.1427062 -131.7578125 47.32421875 C-129.80503968 46.60588455 -127.85224022 45.88762278 -125.89941406 45.16943359 C-124.93024048 44.81298767 -123.96106689 44.45654175 -122.96252441 44.08929443 C-114.83191765 41.09974112 -106.70001843 38.11370369 -98.56835938 35.12701416 C-94.51396868 33.63782885 -90.45965094 32.14844499 -86.40533447 30.65905762 C-77.95193627 27.55363062 -69.49845185 24.44843847 -61.04486084 21.34353638 C-56.63218479 19.72280523 -52.2195339 18.10200559 -47.80688477 16.48120117 C-45.72763293 15.71749531 -43.64836912 14.95382203 -41.5690918 14.19018555 C-39.61008823 13.47071922 -37.65112335 12.75114754 -35.69219971 12.03146362 C-33.82226562 11.34475774 -31.95211331 10.65864574 -30.08172607 9.97317505 C-25.5400764 8.30750285 -21.00370738 6.62938355 -16.47558594 4.92724609 C-15.59857025 4.59919479 -14.72155457 4.27114349 -13.81796265 3.93315125 C-12.1660631 3.31467208 -10.51559738 2.69234458 -8.86685181 2.06550598 C-5.78231965 0.91354379 -3.32128977 0 0 0 Z " fill="#38ECB0" transform="translate(311,1)"/>
<path d="M0 0 C0 31.35 0 62.7 0 95 C-38.4891046 109.71642235 -38.4891046 109.71642235 -50.82928467 114.27636719 C-55.19529167 115.89030283 -59.55854086 117.51166736 -63.921875 119.1328125 C-64.89889374 119.4957843 -65.87591248 119.8587561 -66.88253784 120.23272705 C-81.92218181 125.82483926 -96.94443003 131.46358549 -111.96840668 137.0976181 C-115.12185633 138.28004301 -118.27548235 139.46199708 -121.42913628 140.64387703 C-122.95847766 141.21723156 -124.4877008 141.79090156 -126.01680183 142.36489677 C-129.69545594 143.74575474 -133.37537373 145.12295381 -137.05874634 146.49118042 C-143.23431126 148.7906411 -149.37421861 151.12147861 -155.44238281 153.6953125 C-156.39408356 154.08992676 -157.3457843 154.48454102 -158.32632446 154.89111328 C-160.00612045 155.59395711 -161.67602326 156.32135352 -163.33065796 157.08154297 C-169.91610279 159.80771658 -174.46012886 158.32255212 -181 156 C-182.12135345 155.63035126 -183.24270691 155.26070251 -184.39804077 154.87985229 C-188.24277939 153.60590957 -192.07112763 152.28991294 -195.8984375 150.96484375 C-197.30554041 150.48040667 -198.71273829 149.99624539 -200.12002563 149.51234436 C-203.04706779 148.50507749 -205.97331298 147.49554164 -208.89892578 146.48413086 C-212.6400159 145.19084509 -216.38253519 143.90175767 -220.12558556 142.61415768 C-223.02219948 141.61751915 -225.91833004 140.61948271 -228.81428909 139.62094307 C-230.19445048 139.14507339 -231.57469585 138.66944722 -232.95502853 138.19407463 C-234.88111073 137.53033751 -236.80653615 136.86469546 -238.73193359 136.19897461 C-239.82460541 135.82163681 -240.91727722 135.44429901 -242.0430603 135.05552673 C-244.72430672 134.09841311 -247.36535656 133.07793349 -250 132 C-250.02315598 120.07377662 -250.04093175 108.14755857 -250.05181217 96.22131729 C-250.05703385 90.6836696 -250.06411858 85.14603728 -250.07543945 79.60839844 C-250.08629365 74.26568195 -250.09228223 68.92298026 -250.09487724 63.5802536 C-250.09672691 61.54048174 -250.10033876 59.5007107 -250.10573006 57.46094513 C-250.11297404 54.60708355 -250.11398951 51.75328334 -250.11352539 48.89941406 C-250.11712067 48.05352722 -250.12071594 47.20764038 -250.12442017 46.33612061 C-250.11804391 42.72001241 -249.97827305 39.47947531 -249 36 C-241.53726002 37.93047375 -234.27643077 40.19582639 -227.0234375 42.80078125 C-226.01391022 43.15963913 -225.00438293 43.51849701 -223.96426392 43.88822937 C-220.76648153 45.02587436 -217.57070413 46.16903182 -214.375 47.3125 C-212.25664454 48.06743375 -210.13815586 48.82199379 -208.01953125 49.57617188 C-206.98306458 49.94547821 -205.9465979 50.31478455 -204.87872314 50.69528198 C-202.82085157 51.42789591 -200.76254717 52.15929526 -198.70379639 52.88943481 C-194.08799803 54.52888372 -189.48206568 56.1853794 -184.89941406 57.91552734 C-183.7367955 58.34710396 -183.7367955 58.34710396 -182.5506897 58.78739929 C-181.13972652 59.31227384 -179.73266872 59.84784148 -178.3309021 60.39680481 C-171.24770544 63.00632806 -166.02701648 60.81848102 -159.28125 58.21875 C-158.52866913 57.9340686 -157.77608826 57.64938721 -157.0007019 57.3560791 C-155.36340337 56.73616439 -153.72703282 56.11379442 -152.0914917 55.48925781 C-147.56799271 53.76248913 -143.03723804 52.05489784 -138.5078125 50.34375 C-137.55806549 49.98434326 -136.60831848 49.62493652 -135.62979126 49.25463867 C-125.56485761 45.4487577 -115.47142933 41.72133548 -105.375 38 C-101.54669831 36.58771816 -97.71863051 35.17480317 -93.890625 33.76171875 C-92.39440109 33.20945869 -92.39440109 33.20945869 -90.86795044 32.64604187 C-77.30263924 27.63729226 -63.74523059 22.60720966 -50.1876297 17.57763672 C-48.14992841 16.82174725 -46.11217395 16.06600129 -44.07440186 15.31030273 C-41.46822505 14.34381284 -38.86213822 13.37708098 -36.25613403 12.41012573 C-33.79333782 11.49644989 -31.33035119 10.58328715 -28.86715698 9.67068481 C-23.81633906 7.79760669 -18.76844976 5.91902673 -13.73730469 3.99365234 C-12.98190399 3.7055217 -12.2265033 3.41739105 -11.44821167 3.12052917 C-9.55348102 2.39550455 -7.66112757 1.66427523 -5.76904297 0.93237305 C-3 0 -3 0 0 0 Z " fill="#38ECB0" transform="translate(251,183)"/>
</svg>
